<?xml version="1.0" encoding="UTF-8"?>
<svg id="b" data-name="Livello 2" xmlns="http://www.w3.org/2000/svg" width="114.111mm" height="160.108mm" viewBox="0 0 323.465 453.85">
  <g id="c" data-name="Livello 1">
    <path d="m292.99,241.388c-15.37-20.313-35.883-36.542-58.985-46.907,24.072-20.863,38.436-51.512,38.436-83.772C272.441,49.664,222.777,0,161.732,0S51.024,49.664,51.024,110.708c0,32.261,14.364,62.908,38.436,83.772-23.102,10.365-43.615,26.594-58.985,46.907C10.538,267.736,0,299.13,0,332.175v121.675h323.465v-121.675c0-33.045-10.538-64.439-30.475-90.787ZM161.732,40c38.989,0,70.709,31.72,70.709,70.708s-31.72,70.709-70.709,70.709-70.708-31.72-70.708-70.709,31.72-70.708,70.708-70.708Zm-10.974,181.417h21.948c61.072,0,110.758,49.686,110.758,110.758v81.675H40v-81.675c0-61.072,49.686-110.758,110.758-110.758Z" fill="#1d1d1b"/>
  </g>
</svg>